<svg xmlns="http://www.w3.org/2000/svg" viewBox="0 0 658.09 196.24"><defs><style>.a{fill:#0096a9;}.b{fill:#1d1d1b;}</style></defs><title>Element 1</title><polygon points="395.16 121.66 426.6 121.66 426.6 76.98 426.6 47.31 395.16 47.31 395.16 121.66"/><polygon points="549.39 0 549.39 88.64 431.11 0.05 395.16 0.05 395.16 32.29 427 32.29 429.7 32.3 549.39 121.66 580.83 121.66 580.83 91.41 580.83 0 549.39 0"/><rect x="626.49" y="0.14" width="31.44" height="121.52"/><path d="M184.71,32.15h0c0-.42,0-.84-.06-1.26v-.28h0A31.94,31.94,0,0,0,152.8.19H0V32.28H154.84v15H0v74.12H30.11V74.69H145.16q19.88,0,29.29-6.28c7-4.18,9.76-11.16,10.46-20.92Z"/><path class="a" d="M289.21.05H257.38l-21.9,32.14h40.71l10.32,15H225.26l-50.73,74.46c9.89,0,21.55,0,32.7,0h1.91l32-46.81h64.14l32.43,46.81,34.4,0Z"/><polygon class="b" points="427.61 189.91 397.89 152.63 397.6 152.26 395.27 152.26 395.27 195.37 398.4 195.37 398.4 158.31 427.65 195 427.95 195.37 429.46 195.37 429.58 195.52 429.58 195.37 430.74 195.37 430.74 152.32 427.61 152.32 427.61 189.91"/><polygon class="b" points="442.44 174.91 464.64 174.91 464.64 171.79 442.44 171.79 442.44 155.38 467.77 155.38 467.77 152.26 439.31 152.26 439.31 195.37 468.29 195.37 468.29 192.25 442.44 192.25 442.44 174.91"/><polygon class="b" points="471.12 155.38 486.89 155.38 486.89 195.37 490.01 195.37 490.01 155.38 505.78 155.38 505.78 152.26 471.12 152.26 471.12 155.38"/><polygon class="b" points="508.78 155.38 538.83 155.38 508.71 192.62 508.49 192.89 508.49 195.37 543.09 195.37 543.09 192.25 512.98 192.25 543.1 155.02 543.32 154.75 543.32 152.26 508.78 152.26 508.78 155.38"/><path class="b" d="M577,176.71a12.52,12.52,0,0,0-2.65-2.64,10.44,10.44,0,0,0-1.5-.93,10.79,10.79,0,0,0,2.92-3.16,11.81,11.81,0,0,0,1.73-6.25,12.37,12.37,0,0,0-.72-4.12,12,12,0,0,0-2.05-3.66,10.67,10.67,0,0,0-3.25-2.64,9,9,0,0,0-4.35-1.05H547.91v43.11h20a10.17,10.17,0,0,0,4.36-1,11.42,11.42,0,0,0,3.53-2.57,13,13,0,0,0,3.35-8.11,12.06,12.06,0,0,0-.57-3.69A11.44,11.44,0,0,0,577,176.71Zm-9,15.54H551v-17h17.33a6.72,6.72,0,0,1,3,.68,7.8,7.8,0,0,1,2.44,1.87,9.46,9.46,0,0,1,1.65,2.76,8.92,8.92,0,0,1,.6,3.21,8.32,8.32,0,0,1-.62,3.13,9,9,0,0,1-4.37,4.68A7,7,0,0,1,568,192.25Zm1.81-20.87a6.52,6.52,0,0,1-3,.7H551v-16.7h16a7.18,7.18,0,0,1,2.93.71,6.94,6.94,0,0,1,2.29,1.78,8.92,8.92,0,0,1,1.51,2.66,9.52,9.52,0,0,1,.55,3.2,8.36,8.36,0,0,1-.57,3,9.54,9.54,0,0,1-1.6,2.7A8,8,0,0,1,569.76,171.38Z"/><path class="b" d="M600.08,152.26l-18.83,43.11h3.42l6.43-14.72h20.22l6.43,14.72h3.42L602.4,152.26Zm-7.65,25.27,8.81-20.15L610,177.53Z"/><path class="b" d="M655,152.26v22.13a36,36,0,0,1-.67,6.94,16.79,16.79,0,0,1-2.36,6,12.83,12.83,0,0,1-4.47,4.21,14.24,14.24,0,0,1-7.16,1.61,14.78,14.78,0,0,1-7.15-1.56,12.54,12.54,0,0,1-4.49-4.11,17.28,17.28,0,0,1-2.38-5.95,35.28,35.28,0,0,1-.71-7.11V152.26h-3.12v22.13a36.33,36.33,0,0,0,.84,7.83,20.56,20.56,0,0,0,2.89,7,15.59,15.59,0,0,0,5.53,5.06,17.54,17.54,0,0,0,8.59,1.92,17.79,17.79,0,0,0,8.44-1.85,15.63,15.63,0,0,0,5.52-4.92,19.75,19.75,0,0,0,3-7,37,37,0,0,0,.87-8.1V152.26Z"/></svg>